<svg width="24" height="24" viewBox="0 0 24 24" fill="none" xmlns="http://www.w3.org/2000/svg">
<g clip-path="url(#clip0_911_19094)">
<path d="M19.9207 10.9205L12.9206 10.9417V4.07928C12.9206 3.48135 12.4392 3 11.8413 3C11.2435 3 10.762 3.48135 10.762 4.07928L10.7832 10.9207H4.07928C3.48135 10.9207 3 11.4021 3 12C3 12.5977 3.48135 13.0791 4.07928 13.0791H10.7726V19.9207C10.7726 20.5183 11.2539 21 11.8519 21C12.4498 21 12.9311 20.5183 12.9311 19.9207V13.0793H19.9207C20.5187 13.0793 21 12.5976 21 12C21 11.4019 20.5133 10.9205 19.9207 10.9205Z" fill="#7974B3"/>
</g>
<defs>
<clipPath id="clip0_911_19094">
<rect width="18" height="18" fill="white" transform="translate(3 3)"/>
</clipPath>
</defs>
</svg>
