<svg width="24" height="24" viewBox="0 0 24 24" fill="none" xmlns="http://www.w3.org/2000/svg">
<path d="M4.10526 22C3.52632 22 3.03088 21.8043 2.61895 21.413C2.20632 21.021 2 20.55 2 20V4C2 3.45 2.20632 2.979 2.61895 2.587C3.03088 2.19567 3.52632 2 4.10526 2H12.5263L18.8421 8V11.1L10.4211 19.075V22H4.10526ZM12.5263 22V19.875L17.9474 14.7L20.2105 16.8L14.7632 22H12.5263ZM20.9737 16.1L18.7368 13.975L19.4737 13.275C19.6842 13.075 19.9386 12.975 20.2368 12.975C20.5351 12.975 20.7807 13.075 20.9737 13.275L21.7105 14C21.9035 14.2 22 14.4373 22 14.712C22 14.9873 21.9035 15.2167 21.7105 15.4L20.9737 16.1ZM11.4737 9H16.7368L11.4737 4V9Z" fill="#7974B3"/>
</svg>
