<svg width="24" height="24" viewBox="0 0 24 24" fill="none" xmlns="http://www.w3.org/2000/svg">
<path d="M18.3 7.45455C17.55 7.45455 16.9125 7.18939 16.3875 6.65909C15.8625 6.12879 15.6 5.48485 15.6 4.72727C15.6 3.9697 15.8625 3.32576 16.3875 2.79545C16.9125 2.26515 17.55 2 18.3 2C19.05 2 19.6875 2.26515 20.2125 2.79545C20.7375 3.32576 21 3.9697 21 4.72727C21 5.48485 20.7375 6.12879 20.2125 6.65909C19.6875 7.18939 19.05 7.45455 18.3 7.45455ZM3 22V5.63636C3 5.13636 3.1764 4.70818 3.5292 4.35182C3.8814 3.99606 4.305 3.81818 4.8 3.81818H13.89C13.83 4.12121 13.8 4.42424 13.8 4.72727C13.8 5.0303 13.83 5.33333 13.89 5.63636C14.1 6.68182 14.6175 7.54909 15.4425 8.23818C16.2675 8.92788 17.22 9.27273 18.3 9.27273C18.78 9.27273 19.2525 9.19697 19.7175 9.04545C20.1825 8.89394 20.61 8.66667 21 8.36364V16.5455C21 17.0455 20.8239 17.4736 20.4717 17.83C20.1189 18.1858 19.695 18.3636 19.2 18.3636H6.6L3 22Z" fill="white"/>
</svg>
