<svg width="24" height="24" viewBox="0 0 24 24" fill="none" xmlns="http://www.w3.org/2000/svg">
<circle cx="12" cy="12" r="10" fill="#F77958"/>
<path d="M16.9986 20.1575C16.9114 19.4323 16.1085 19.3501 15.6417 19.4C15.1448 17.5321 16.8782 14.7481 16.9802 14.0887C17.0898 13.3803 16.4728 9.25818 16.4076 7.17094C16.3407 5.02825 13.223 2.66282 12.7025 3.03991C12.1867 3.60922 13.4454 4.37762 12.7828 5.03639C12.1428 5.67288 11.9759 6.10062 11.5007 6.82102C10.2832 8.66612 13.5826 8.68917 13.5826 8.68917C13.5826 8.68917 11.0004 10.5995 10.4259 11.5622C9.89679 12.4489 9.67494 13.4409 9.03646 14.277C7.58132 16.1827 7.90925 19.5053 7.90925 19.5053C7.90925 19.5053 5.15277 18.6047 6.66979 15.4634C7.82458 13.0723 8.39341 9.54367 5.79536 10.4512C4.79024 10.8023 6.0201 11.5409 6.23234 11.7775C6.94246 12.5686 6.34216 13.8996 5.91425 14.6691C4.76829 16.73 4.35226 18.8892 6.76428 20.2206C7.83601 20.8121 9.28338 20.9585 10.7401 20.98L14.4469 20.9906C15.6681 21.0512 17.0494 20.8233 16.9986 20.1575Z" fill="#26273B"/>
</svg>
