<svg width="24" height="24" viewBox="0 0 24 24" fill="none" xmlns="http://www.w3.org/2000/svg">
<path d="M20.4444 22L13.4444 15C12.8889 15.4444 12.25 15.7963 11.5278 16.0556C10.8056 16.3148 10.037 16.4444 9.22222 16.4444C7.2037 16.4444 5.49556 15.7456 4.09778 14.3478C2.69926 12.9493 2 11.2407 2 9.22222C2 7.2037 2.69926 5.49519 4.09778 4.09667C5.49556 2.69889 7.2037 2 9.22222 2C11.2407 2 12.9493 2.69889 14.3478 4.09667C15.7456 5.49519 16.4444 7.2037 16.4444 9.22222C16.4444 10.037 16.3148 10.8056 16.0556 11.5278C15.7963 12.25 15.4444 12.8889 15 13.4444L22 20.4444L20.4444 22ZM9.22222 14.2222C10.6111 14.2222 11.7919 13.7363 12.7644 12.7644C13.7363 11.7919 14.2222 10.6111 14.2222 9.22222C14.2222 7.83333 13.7363 6.65259 12.7644 5.68C11.7919 4.70815 10.6111 4.22222 9.22222 4.22222C7.83333 4.22222 6.65259 4.70815 5.68 5.68C4.70815 6.65259 4.22222 7.83333 4.22222 9.22222C4.22222 10.6111 4.70815 11.7919 5.68 12.7644C6.65259 13.7363 7.83333 14.2222 9.22222 14.2222Z" fill="#3181E7"/>
</svg>
