<svg width="24" height="24" viewBox="0 0 24 24" fill="none" xmlns="http://www.w3.org/2000/svg">
<path d="M4.5 22C3.8125 22 3.22417 21.7554 2.735 21.2663C2.245 20.7763 2 20.1875 2 19.5C2 18.8125 2.245 18.2237 2.735 17.7337C3.22417 17.2446 3.8125 17 4.5 17C5.1875 17 5.77583 17.2446 6.265 17.7337C6.755 18.2237 7 18.8125 7 19.5C7 20.1875 6.755 20.7763 6.265 21.2663C5.77583 21.7554 5.1875 22 4.5 22ZM12 22C11.3125 22 10.7242 21.7554 10.235 21.2663C9.745 20.7763 9.5 20.1875 9.5 19.5C9.5 18.8125 9.745 18.2237 10.235 17.7337C10.7242 17.2446 11.3125 17 12 17C12.6875 17 13.2762 17.2446 13.7663 17.7337C14.2554 18.2237 14.5 18.8125 14.5 19.5C14.5 20.1875 14.2554 20.7763 13.7663 21.2663C13.2762 21.7554 12.6875 22 12 22ZM19.5 22C18.8125 22 18.2237 21.7554 17.7337 21.2663C17.2446 20.7763 17 20.1875 17 19.5C17 18.8125 17.2446 18.2237 17.7337 17.7337C18.2237 17.2446 18.8125 17 19.5 17C20.1875 17 20.7763 17.2446 21.2663 17.7337C21.7554 18.2237 22 18.8125 22 19.5C22 20.1875 21.7554 20.7763 21.2663 21.2663C20.7763 21.7554 20.1875 22 19.5 22ZM4.5 14.5C3.8125 14.5 3.22417 14.255 2.735 13.765C2.245 13.2758 2 12.6875 2 12C2 11.3125 2.245 10.7238 2.735 10.2337C3.22417 9.74458 3.8125 9.5 4.5 9.5C5.1875 9.5 5.77583 9.74458 6.265 10.2337C6.755 10.7238 7 11.3125 7 12C7 12.6875 6.755 13.2758 6.265 13.765C5.77583 14.255 5.1875 14.5 4.5 14.5ZM12 14.5C11.3125 14.5 10.7242 14.255 10.235 13.765C9.745 13.2758 9.5 12.6875 9.5 12C9.5 11.3125 9.745 10.7238 10.235 10.2337C10.7242 9.74458 11.3125 9.5 12 9.5C12.6875 9.5 13.2762 9.74458 13.7663 10.2337C14.2554 10.7238 14.5 11.3125 14.5 12C14.5 12.6875 14.2554 13.2758 13.7663 13.765C13.2762 14.255 12.6875 14.5 12 14.5ZM19.5 14.5C18.8125 14.5 18.2237 14.255 17.7337 13.765C17.2446 13.2758 17 12.6875 17 12C17 11.3125 17.2446 10.7238 17.7337 10.2337C18.2237 9.74458 18.8125 9.5 19.5 9.5C20.1875 9.5 20.7763 9.74458 21.2663 10.2337C21.7554 10.7238 22 11.3125 22 12C22 12.6875 21.7554 13.2758 21.2663 13.765C20.7763 14.255 20.1875 14.5 19.5 14.5ZM4.5 7C3.8125 7 3.22417 6.755 2.735 6.265C2.245 5.77583 2 5.1875 2 4.5C2 3.8125 2.245 3.22417 2.735 2.735C3.22417 2.245 3.8125 2 4.5 2C5.1875 2 5.77583 2.245 6.265 2.735C6.755 3.22417 7 3.8125 7 4.5C7 5.1875 6.755 5.77583 6.265 6.265C5.77583 6.755 5.1875 7 4.5 7ZM12 7C11.3125 7 10.7242 6.755 10.235 6.265C9.745 5.77583 9.5 5.1875 9.5 4.5C9.5 3.8125 9.745 3.22417 10.235 2.735C10.7242 2.245 11.3125 2 12 2C12.6875 2 13.2762 2.245 13.7663 2.735C14.2554 3.22417 14.5 3.8125 14.5 4.5C14.5 5.1875 14.2554 5.77583 13.7663 6.265C13.2762 6.755 12.6875 7 12 7ZM19.5 7C18.8125 7 18.2237 6.755 17.7337 6.265C17.2446 5.77583 17 5.1875 17 4.5C17 3.8125 17.2446 3.22417 17.7337 2.735C18.2237 2.245 18.8125 2 19.5 2C20.1875 2 20.7763 2.245 21.2663 2.735C21.7554 3.22417 22 3.8125 22 4.5C22 5.1875 21.7554 5.77583 21.2663 6.265C20.7763 6.755 20.1875 7 19.5 7Z" fill="white"/>
</svg>
