<svg width="24" height="24" viewBox="0 0 24 24" fill="none" xmlns="http://www.w3.org/2000/svg">
<path d="M12 23L10.55 21.5831C8.86667 19.9301 7.475 18.5041 6.375 17.3052C5.275 16.1063 4.4 15.0298 3.75 14.0758C3.1 13.1224 2.646 12.2461 2.388 11.4469C2.12933 10.6476 2 9.83015 2 8.99455C2 7.28701 2.525 5.86104 3.575 4.71662C4.625 3.57221 5.93333 3 7.5 3C8.36667 3 9.19167 3.19982 9.975 3.59945C10.7583 3.99909 11.4333 4.56222 12 5.28883C12.5667 4.56222 13.2417 3.99909 14.025 3.59945C14.8083 3.19982 15.6333 3 16.5 3C18.0667 3 19.375 3.57221 20.425 4.71662C21.475 5.86104 22 7.28701 22 8.99455C22 9.83015 21.871 10.6476 21.613 11.4469C21.3543 12.2461 20.9 13.1224 20.25 14.0758C19.6 15.0298 18.725 16.1063 17.625 17.3052C16.525 18.5041 15.1333 19.9301 13.45 21.5831L12 23Z" fill="white"/>
</svg>
