<svg width="24" height="24" viewBox="0 0 24 24" fill="none" xmlns="http://www.w3.org/2000/svg">
<path d="M12 22C11.175 22 10.469 21.7554 9.882 21.2663C9.294 20.7763 9 20.1875 9 19.5C9 18.8125 9.294 18.2237 9.882 17.7337C10.469 17.2446 11.175 17 12 17C12.825 17 13.5315 17.2446 14.1195 17.7337C14.7065 18.2237 15 18.8125 15 19.5C15 20.1875 14.7065 20.7763 14.1195 21.2663C13.5315 21.7554 12.825 22 12 22ZM12 14.5C11.175 14.5 10.469 14.255 9.882 13.765C9.294 13.2758 9 12.6875 9 12C9 11.3125 9.294 10.7238 9.882 10.2337C10.469 9.74458 11.175 9.5 12 9.5C12.825 9.5 13.5315 9.74458 14.1195 10.2337C14.7065 10.7238 15 11.3125 15 12C15 12.6875 14.7065 13.2758 14.1195 13.765C13.5315 14.255 12.825 14.5 12 14.5ZM12 7C11.175 7 10.469 6.755 9.882 6.265C9.294 5.77583 9 5.1875 9 4.5C9 3.8125 9.294 3.22417 9.882 2.735C10.469 2.245 11.175 2 12 2C12.825 2 13.5315 2.245 14.1195 2.735C14.7065 3.22417 15 3.8125 15 4.5C15 5.1875 14.7065 5.77583 14.1195 6.265C13.5315 6.755 12.825 7 12 7Z" fill="#3181E7"/>
</svg>
